<?xml version="1.0" encoding="UTF-8"?>
<svg width="239px" height="235px" viewBox="0 0 239 235" version="1.1" xmlns="http://www.w3.org/2000/svg" xmlns:xlink="http://www.w3.org/1999/xlink">
    <title>cat-paw</title>
    <g id="Page-1" stroke="none" stroke-width="1" fill="none" fill-rule="evenodd">
        <g id="cat-paw" transform="translate(0.0418, 0.5868)" fill="#FA6400" fill-rule="nonzero">
            <path d="M58.9582288,110.803224 C64.8882288,131.893224 56.9582288,152.563224 41.1882288,157.023224 C25.4182288,161.483224 7.86822881,147.983224 1.95822881,126.883224 C-3.95177119,105.783224 3.95822881,85.1032242 19.7282288,80.6632242 C35.4982288,76.2232242 53.0382288,89.6932242 58.9582288,110.803224 Z" id="Path"></path>
            <path d="M98.6782288,42.4132242 C104.508229,63.0732242 96.9382288,83.2532242 81.7782288,87.5632242 C66.6182288,91.8732242 49.5882288,78.5632242 43.7782288,57.9132242 C37.9682288,37.2632242 45.5482288,17.0832242 60.7082288,12.7832242 C75.8682288,8.48322422 92.8482288,21.8332242 98.6782288,42.4132242 Z" id="Path"></path>
            <path d="M168.808229,31.3032242 C174.738229,52.3932242 167.438229,72.9232242 152.458229,77.1432242 C137.478229,81.3632242 120.558229,67.6732242 114.568229,46.6132242 C108.578229,25.5532242 115.958229,5.02322422 130.958229,0.773224222 C145.958229,-3.47677578 162.848229,10.2232242 168.808229,31.3032242 Z" id="Path"></path>
            <path d="M236.858229,76.8432242 C242.478229,96.8432242 234.298229,116.603224 218.588229,121.033224 C202.878229,125.463224 185.588229,112.873224 179.908229,92.9232242 C174.228229,72.9732242 182.438229,53.1632242 198.178229,48.7232242 C213.918229,44.2832242 231.218229,56.8732242 236.858229,76.8432242 Z" id="Path"></path>
            <path d="M97.5382288,232.653224 C97.5382288,232.653224 48.5382288,247.653224 51.2082288,184.653224 C57.7616252,169.754648 66.3062324,155.814155 76.6082288,143.213224 C76.6082288,143.213224 90.1882288,121.463224 92.6082288,113.633224 C92.6082288,113.633224 108.798229,72.1332242 146.398229,102.063224 C146.398229,102.063224 177.958229,132.453224 190.058229,135.703224 C190.058229,135.703224 231.108229,160.703224 210.728229,197.963224 C210.728229,197.963224 190.728229,220.623224 172.728229,210.963224 C172.738229,210.953224 128.288229,190.773224 97.5382288,232.653224 Z" id="Path"></path>
        </g>
    </g>
</svg>