<svg data-v-423bf9ae="" xmlns="http://www.w3.org/2000/svg" viewBox="0 0 294 90" class="iconLeft"><!----><!----><!----><g data-v-423bf9ae="" id="2f1be19b-8137-4fa7-849e-f82c1eab961c" fill="#F933AE" transform="matrix(7.792207985226717,0,0,7.792207985226717,138.25046470359672,-4.402598195945394)"><path d="M0.31 8.59L1.86 8.59L1.86 7.43Q1.86 7.43 1.91 7.43Q1.96 7.44 1.98 7.44Q2.00 7.44 2.06 7.44Q2.11 7.44 2.14 7.45Q2.17 7.45 2.22 7.45Q2.28 7.45 2.32 7.45Q2.36 7.46 2.41 7.46Q2.45 7.46 2.50 7.46L2.50 7.46Q2.87 7.46 3.19 7.29Q3.52 7.13 3.78 6.83Q4.03 6.52 4.18 6.05Q4.34 5.58 4.34 5.00L4.34 5.00Q4.34 4.04 3.87 3.56Q3.40 3.08 2.50 3.08L2.50 3.08Q2.17 3.08 1.68 3.10Q1.18 3.12 0.93 3.12L0.93 3.12L0.31 3.12L0.31 8.59ZM2.80 4.79L2.80 4.79L2.80 5.48Q2.80 5.95 2.60 6.20Q2.40 6.44 2.03 6.44L2.03 6.44L1.86 6.44L1.86 4.02L2.08 4.02Q2.43 4.02 2.62 4.23Q2.80 4.45 2.80 4.79ZM6.84 6.17L6.84 6.17L6.13 6.17L6.13 5.78Q6.13 5.61 6.14 5.50Q6.15 5.39 6.19 5.29Q6.23 5.18 6.32 5.14Q6.41 5.09 6.55 5.09L6.55 5.09Q6.72 5.09 6.78 5.33Q6.84 5.58 6.84 6.17ZM6.46 8.68L6.46 8.68Q6.74 8.68 7.05 8.62Q7.36 8.55 7.69 8.37Q8.03 8.18 8.20 7.90L8.20 7.90L7.92 7.42Q7.79 7.55 7.60 7.63Q7.41 7.72 7.22 7.77Q7.03 7.81 6.86 7.81L6.86 7.81Q6.70 7.81 6.58 7.78Q6.46 7.75 6.35 7.67Q6.24 7.58 6.18 7.41Q6.12 7.23 6.12 6.95L6.12 6.95L6.12 6.86L8.26 6.86L8.26 6.35Q8.26 5.39 7.86 4.96Q7.46 4.53 6.54 4.53L6.54 4.53Q5.59 4.53 5.05 5.06Q4.52 5.60 4.52 6.65L4.52 6.65Q4.52 7.08 4.62 7.44Q4.73 7.80 4.95 8.08Q5.17 8.37 5.56 8.53Q5.94 8.68 6.46 8.68ZM9.85 8.68L9.85 8.68Q10.17 8.68 10.43 8.61Q10.69 8.54 10.80 8.48Q10.91 8.41 10.98 8.34L10.98 8.34L10.98 7.70Q10.93 7.75 10.85 7.77Q10.77 7.79 10.67 7.79L10.67 7.79Q10.45 7.79 10.34 7.67Q10.23 7.55 10.23 7.18L10.23 7.18L10.23 5.44L11.01 5.44L11.01 4.62L10.25 4.62L10.25 3.53L9.43 3.53L8.95 4.62L8.40 4.79L8.40 5.44L8.72 5.44L8.72 7.03Q8.72 7.93 8.97 8.31Q9.22 8.68 9.85 8.68ZM11.42 5.57L11.42 8.59L12.92 8.59L12.92 4.62L12.14 4.62L11.14 4.90L11.14 5.39L11.42 5.57ZM11.33 3.42L12.10 4.19L12.27 4.19L13.07 3.42L13.07 3.26L12.27 2.49L12.10 2.49L11.33 3.26L11.33 3.42ZM13.68 8.59L15.19 8.59L15.19 5.44L15.80 5.44L15.80 4.62L15.19 4.62L15.19 3.95Q15.19 3.40 15.55 3.34L15.55 3.34Q15.61 3.33 15.67 3.33L15.67 3.33Q15.90 3.33 16.13 3.44L16.13 3.44L16.31 2.73Q16.24 2.66 15.96 2.58Q15.68 2.50 15.36 2.50L15.36 2.50Q15.00 2.50 14.72 2.58Q14.43 2.67 14.19 2.86Q13.96 3.05 13.83 3.40Q13.70 3.74 13.70 4.21L13.70 4.21L13.70 4.62L13.23 4.82L13.23 5.44L13.68 5.44L13.68 8.59ZM18.11 10.19L18.11 10.19Q19.03 10.19 19.46 9.63Q19.90 9.07 19.90 8.04L19.90 8.04L19.90 4.62L18.13 4.62L18.13 5.16L18.38 5.32L18.38 7.52Q18.32 7.57 18.26 7.61Q18.20 7.65 18.14 7.67Q18.08 7.69 18.02 7.69L18.02 7.69Q17.81 7.69 17.75 7.59Q17.68 7.49 17.68 7.28L17.68 7.28L17.68 4.62L15.98 4.62L15.98 5.16L16.15 5.32L16.15 6.98Q16.15 7.91 16.43 8.29Q16.72 8.68 17.41 8.68L17.41 8.68Q17.59 8.68 17.77 8.61Q17.94 8.54 18.06 8.43Q18.19 8.33 18.28 8.22Q18.38 8.12 18.42 8.04L18.42 8.04L18.47 7.97L18.47 8.37Q18.47 8.65 18.41 8.84Q18.35 9.03 18.25 9.13Q18.14 9.24 18.00 9.28Q17.87 9.32 17.68 9.32L17.68 9.32Q17.09 9.32 16.82 9.17L16.82 9.17L16.58 9.67Q16.78 9.91 17.20 10.05Q17.63 10.19 18.11 10.19Z"></path></g><!----><g data-v-423bf9ae="" id="89b18122-7396-4968-85be-6d77136d5fc0" transform="matrix(1.2066365994935524,0,0,1.2066365994935524,0.6111558255332312,-15.693404190130849)" stroke="none" fill="#EE2FA9"><circle cx="35.735" cy="49.639" r="4.397"></circle><circle cx="66.599" cy="49.639" r="4.397"></circle><path d="M43.107 60.675c0 4.168 7.546 7.55 7.546 7.55s7.55-3.382 7.55-7.55-15.096-4.168-15.096 0z"></path><path d="M98.236 69.06l-9.263-1.48a29.861 29.861 0 001.438-3.615l7.062 1.131c.13.021.258.028.386.028a2.417 2.417 0 00.379-4.803l-6.675-1.067c.28-1.726.427-3.508.427-5.343 0-6.845-4.561-22.027-6.425-26.725-1.431-3.602-2.868-5.95-4.531-8.67a121.748 121.748 0 01-2.514-4.245 2.416 2.416 0 00-1.964-1.23c-.849-.062-1.611.324-2.097.987-3.021 4.139-7.708 8.75-9.605 8.75-.775 0-2.202-.176-3.855-.38-2.922-.36-6.562-.81-10.338-.81-3.111 0-6.12.394-8.776.741-1.843.241-3.434.449-4.533.449-3.984 0-8.543-6.114-9.827-8.256a2.418 2.418 0 00-2.058-1.175 2.373 2.373 0 00-2.072 1.145c-2.846 4.602-4.725 7.642-6.769 12.961-1.877 4.884-6.276 19.777-6.276 26.457 0 1.735.136 3.422.386 5.062L2.311 60.32a2.417 2.417 0 00.764 4.775l8.765-1.402a29.993 29.993 0 001.403 3.62L2.307 69.06a2.418 2.418 0 00.764 4.777l12.746-2.039c6.81 9.795 19.501 15.824 35.349 15.824 15.708 0 28.317-5.926 35.172-15.568l11.136 1.781a2.415 2.415 0 002.768-2.005 2.42 2.42 0 00-2.006-2.77zM51.165 82.786c-11.613 0-23.289-3.759-30.068-11.836l2.122-.338a2.417 2.417 0 00-.763-4.774l-4.327.693a24.89 24.89 0 01-1.531-3.601l6.621-1.057a2.418 2.418 0 00-.763-4.775l-6.967 1.115a30.546 30.546 0 01-.31-4.302c0-5.423 3.863-19.281 5.955-24.725 1.408-3.665 2.707-6.117 4.445-9.015 2.48 3.151 6.775 7.44 11.767 7.44 1.414 0 3.149-.227 5.16-.489 2.508-.328 5.352-.7 8.15-.7 3.479 0 6.953.428 9.746.772 1.886.232 3.375.417 4.446.417 3.909 0 8.436-4.511 11.267-7.873.271.448.534.88.793 1.301 1.609 2.635 2.883 4.715 4.16 7.93 2.081 5.247 6.083 19.387 6.083 24.941 0 1.6-.129 3.12-.352 4.58l-8.715-1.394a2.408 2.408 0 00-2.769 2.005 2.42 2.42 0 002.004 2.769l8.316 1.329a24.754 24.754 0 01-1.567 3.592l-5.984-.957c-1.332-.212-2.559.687-2.77 2.004s.688 2.558 2.003 2.769l3.694.592c-6.804 7.904-18.355 11.587-29.846 11.587z"></path></g><!----></svg>