<svg xmlns="http://www.w3.org/2000/svg" version="1.1" xmlns:xlink="http://www.w3.org/1999/xlink" width="200" height="80" viewBox="0 0 200 80"><svg xml:space="preserve" width="200" height="80" data-version="2" data-id="lg_s0cyOY9rRqrm04YMyB" viewBox="0 0 560 135" x="0" y="0"><rect width="100%" height="100%" fill="transparent"></rect><path fill="#4c4b4b" d="M177.681 111.65h-11.79V31.71h11.79Zm-1.71-79.94h21.16q13.35 0 20.52 6.53t7.17 19.59q0 11.79-7.38 18.32-7.39 6.53-20.31 6.53h-21.16v-8.94h19.74q8.52 0 13.42-3.98 4.9-3.97 4.9-12.07 0-8.38-4.83-12.28-4.83-3.91-13.49-3.91h-19.74Z"></path><rect width="58.93" height="79.94" x="-29.46" y="-39.97" fill="none" rx="0" ry="0" transform="translate(195.86 72.18)"></rect><path fill="#4c4b4b" d="M235.331 111.65V31.71h55.38v10.22h-43.74v24.28h34.08v9.8h-34.08V102h45.16v9.65Z"></path><rect width="56.8" height="79.94" x="-28.4" y="-39.97" fill="none" rx="0" ry="0" transform="translate(264.23 72.18)"></rect><path fill="#4c4b4b" d="M335.011 34.26v77.39h-11.78V34.26Zm-36.49 7.67V31.71h61.06v10.22Z"></path><rect width="61.06" height="79.94" x="-30.53" y="-39.97" fill="none" rx="0" ry="0" transform="translate(329.55 72.18)"></rect><path fill="#4c4b4b" d="M381.301 109.1V34.26h11.65v74.84Zm-10.93 2.55v-10.22h33.37v10.22Zm0-69.72V31.71h33.37v10.22Z"></path><rect width="33.37" height="79.94" x="-16.68" y="-39.97" fill="none" rx="0" ry="0" transform="translate(387.56 72.18)"></rect><path fill="#4c4b4b" d="M434.411 111.65h-11.64V31.71h56.09v10.22h-44.45v22.58h34.51v9.8h-34.51Z"></path><rect width="56.09" height="79.94" x="-28.05" y="-39.97" fill="none" rx="0" ry="0" transform="translate(451.32 72.18)"></rect><path fill="#4c4b4b" d="m514.071 83.11-27.4-51.4h13.2l20.17 40.61 20.02-40.61h13.21l-27.84 51.4Zm-.14 28.54V81.26h11.79v30.39Z"></path><rect width="66.6" height="79.94" x="-33.3" y="-39.97" fill="none" rx="0" ry="0" transform="translate(520.47 72.18)"></rect><path fill="#4c4b4b" d="M48.757 57.9c3.175-.757 6.955-1.966 6.652-5.746 0-.453-.15-.756-.302-1.058-1.058-1.663-4.535-1.663-6.198-1.814h-.152c-1.663.151-5.14.151-6.198 1.814-.151.302-.302.756-.302 1.058-.303 3.629 3.477 4.838 6.5 5.745"></path><path fill="#4c4b4b" d="M122.684 84.81c-.15-1.361-1.36-2.42-2.72-2.722-1.361-.302-2.873.453-3.478 1.814-2.721 5.594-8.012 8.315-10.583 9.373-6.35-21.467-26.758-28.875-34.015-30.992 2.721-3.477 4.535-7.559 5.745-11.64 3.023-.152 12.699-1.512 14.06-13.153 1.36-12.7-4.082-23.887-15.118-30.84C65.992.147 49.967 1.81 48.757 1.962 47.094 1.81 31.372.3 21.092 6.8 10.055 13.755 4.462 24.942 5.974 37.641c1.209 11.339 10.733 12.85 14.06 13.153 1.511 5.442 3.93 9.826 7.256 13.304-3.477 2.57-5.443 6.651-5.443 11.036v42.935c0 7.559 6.199 13.757 13.758 13.757 5.593 0 10.431-3.326 12.548-8.012 2.419 4.233 6.803 7.105 12.094 7.105 4.99 0 9.373-2.721 11.792-6.652 4.233 3.326 8.315 4.99 12.548 4.99 1.36 0 2.721-.152 4.233-.454 7.56-1.815 13.909-6.804 16.781-13.153.756-1.814 1.36-3.78 1.663-5.745 15.723-6.652 16.479-18.444 15.42-25.096M8.846 37.188c-1.36-11.641 3.628-21.62 13.757-27.969 9.827-6.047 25.7-4.384 25.852-4.384h.454c.302.151 16.176-1.663 26.003 4.384C85.04 15.57 90.03 25.395 88.669 37.187c-.907 8.467-7.408 10.13-10.28 10.432 2.267-11.339.15-22.526 0-23.13a1.568 1.568 0 0 0-1.814-1.21 1.568 1.568 0 0 0-1.21 1.814c0 .302 4.384 22.98-6.047 35.679-4.687 5.593-11.49 8.466-20.712 8.466-9.07 0-16.025-3.024-20.711-8.769-10.28-12.699-6.048-35.074-5.896-35.376l-1.512-.302-.151-1.512c-1.059.151-1.361.151-1.966 6.047-.302 2.721-.453 6.954-.15 11.49.15 2.419.453 4.535.906 6.652-3.023-.303-9.222-1.966-10.28-10.28m93.883 76.95c-2.42 5.443-8.013 9.827-14.665 11.339-5.14 1.21-9.675-.152-14.815-4.385.453-1.36.756-2.872.756-4.384V89.95c0-.907-.605-1.511-1.512-1.511s-1.512.604-1.512 1.511v26.91c0 5.896-4.838 10.734-10.734 10.734s-10.734-4.838-10.734-10.734v-16.327c1.059-1.058 2.268-2.117 3.326-3.175 1.36-1.21 2.873-2.419 4.082-3.78 2.268-2.267 5.14-4.232 5.291-7.71.152-3.628-2.72-6.954-6.35-7.407-2.871-.303-6.197 1.814-7.86 4.082-1.663-2.268-4.838-4.536-7.862-4.234-3.628.454-6.5 3.629-6.35 7.408.152 3.477 2.873 5.443 5.292 7.71 2.419 2.42 4.989 4.536 7.408 6.804v17.385c0 5.896-4.838 10.734-10.734 10.734s-10.734-4.838-10.734-10.734V74.983c0-3.629 1.814-6.955 4.838-8.92 4.989 3.93 11.49 6.047 19.351 6.047 8.617 0 15.572-2.419 20.712-7.257 4.535 1.059 29.177 7.862 34.166 32.655.605 4.385 1.21 10.885-1.36 16.63m4.837-8.012c.152-2.873-.15-6.048-.755-9.222 0-.152-.152-.454-.152-.605 2.722-1.058 9.071-4.233 12.548-11.036 0 0 .152-.151.303-.151s.15.15.15.15c1.06 6.653-.301 15.572-12.094 20.864"></path><path fill="#4c4b4b" d="M62.061 41.27c2.268 0 4.082-2.268 4.082-4.99v-.453c-.151 0-.302.151-.605.151-1.058 0-1.965-.907-1.965-1.965 0-.756.454-1.36 1.058-1.663-.756-.605-1.511-1.059-2.419-1.059-2.267 0-4.081 2.268-4.081 4.99-.152 2.72 1.663 4.988 3.93 4.988m-26.456 0c2.268 0 4.082-2.267 4.082-4.989v-.453c-.152 0-.303.151-.605.151-1.058 0-1.965-.907-1.965-1.965 0-.756.453-1.36 1.058-1.663-.756-.605-1.512-1.059-2.419-1.059-2.268 0-4.082 2.268-4.082 4.99-.151 2.72 1.663 4.988 3.93 4.988"></path><circle r=".7" fill="#4c4b4b" transform="translate(61 52.6)scale(1.5118)"></circle><circle r=".7" fill="#4c4b4b" transform="translate(63.42 56.39)scale(1.5118)"></circle><circle r=".7" fill="#4c4b4b" transform="translate(66.44 51.55)scale(1.5118)"></circle><circle r=".7" fill="#4c4b4b" transform="translate(36.06 52.6)scale(1.5118)"></circle><circle r=".7" fill="#4c4b4b" transform="translate(33.49 56.39)scale(1.5118)"></circle><circle r=".7" fill="#4c4b4b" transform="translate(30.46 51.55)scale(1.5118)"></circle></svg></svg>